<?xml version="1.0" encoding="UTF-8"?> <svg xmlns="http://www.w3.org/2000/svg" height="382px" width="573px" viewBox="-17.85 -6.5 120 27"><path d="M 95.707 19.748 L -11.293 19.748 C -14.607 19.748 -17.293 17.062 -17.293 13.748 L -17.293 -0.252 C -17.293 -3.566 -14.607 -6.252 -11.293 -6.252 L 95.707 -6.252 C 99.021 -6.252 101.707 -3.566 101.707 -0.252 L 101.707 13.748 C 101.707 17.062 99.021 19.748 95.707 19.748 Z M 100.707 -0.252 C 100.707 -3.013 98.468 -5.252 95.707 -5.252 L -11.293 -5.252 C -14.054 -5.252 -16.293 -3.013 -16.293 -0.252 L -16.293 13.748 C -16.293 16.509 -14.054 18.748 -11.293 18.748 L 95.707 18.748 C 98.468 18.748 100.707 16.509 100.707 13.748 L 100.707 -0.252 Z" fill="#FFF" opacity=".749" fill-rule="evenodd"></path><path d="M 43.407 12.185 L 42.102 12.185 L 43.112 9.691 L 41.102 4.619 L 42.481 4.619 L 43.744 8.071 L 45.017 4.619 L 46.396 4.619 L 43.407 12.185 Z M 38.397 10.007 C 37.945 10.007 37.481 9.839 37.061 9.512 L 37.061 9.881 L 35.714 9.881 L 35.714 2.314 L 37.061 2.314 L 37.061 4.977 C 37.481 4.661 37.945 4.493 38.397 4.493 C 39.807 4.493 40.775 5.629 40.775 7.25 C 40.775 8.87 39.807 10.007 38.397 10.007 Z M 38.113 5.65 C 37.745 5.65 37.376 5.808 37.061 6.124 L 37.061 8.376 C 37.376 8.691 37.745 8.849 38.113 8.849 C 38.871 8.849 39.397 8.197 39.397 7.25 C 39.397 6.303 38.871 5.65 38.113 5.65 Z M 30.261 9.512 C 29.851 9.839 29.388 10.007 28.925 10.007 C 27.525 10.007 26.547 8.87 26.547 7.25 C 26.547 5.629 27.525 4.493 28.925 4.493 C 29.388 4.493 29.851 4.661 30.261 4.977 L 30.261 2.314 L 31.619 2.314 L 31.619 9.881 L 30.261 9.881 L 30.261 9.512 Z M 30.261 6.124 C 29.956 5.808 29.588 5.65 29.22 5.65 C 28.451 5.65 27.925 6.303 27.925 7.25 C 27.925 8.197 28.451 8.849 29.22 8.849 C 29.588 8.849 29.956 8.691 30.261 8.376 L 30.261 6.124 Z M 22.242 7.618 C 22.326 8.418 22.958 8.965 23.841 8.965 C 24.326 8.965 24.862 8.786 25.409 8.47 L 25.409 9.597 C 24.81 9.87 24.21 10.007 23.62 10.007 C 22.031 10.007 20.916 8.849 20.916 7.208 C 20.916 5.619 22.01 4.493 23.515 4.493 C 24.894 4.493 25.83 5.577 25.83 7.123 C 25.83 7.271 25.83 7.439 25.809 7.618 L 22.242 7.618 Z M 23.463 5.534 C 22.81 5.534 22.305 6.019 22.242 6.745 L 24.536 6.745 C 24.494 6.029 24.063 5.534 23.463 5.534 Z M 18.695 6.366 L 18.695 9.881 L 17.348 9.881 L 17.348 4.619 L 18.695 4.619 L 18.695 5.145 C 19.074 4.724 19.537 4.493 19.989 4.493 C 20.137 4.493 20.284 4.503 20.431 4.545 L 20.431 5.745 C 20.284 5.703 20.116 5.682 19.958 5.682 C 19.516 5.682 19.042 5.924 18.695 6.366 Z M 12.686 7.618 C 12.77 8.418 13.401 8.965 14.285 8.965 C 14.769 8.965 15.306 8.786 15.853 8.47 L 15.853 9.597 C 15.253 9.87 14.653 10.007 14.064 10.007 C 12.475 10.007 11.36 8.849 11.36 7.208 C 11.36 5.619 12.454 4.493 13.959 4.493 C 15.337 4.493 16.274 5.577 16.274 7.123 C 16.274 7.271 16.274 7.439 16.253 7.618 L 12.686 7.618 Z M 13.906 5.534 C 13.254 5.534 12.749 6.019 12.686 6.745 L 14.98 6.745 C 14.938 6.029 14.506 5.534 13.906 5.534 Z M 7.981 9.881 L 6.907 6.303 L 5.844 9.881 L 4.634 9.881 L 2.824 4.619 L 4.171 4.619 L 5.234 8.197 L 6.297 4.619 L 7.517 4.619 L 8.58 8.197 L 9.643 4.619 L 10.99 4.619 L 9.191 9.881 L 7.981 9.881 Z M -0.25 10.007 C -1.839 10.007 -2.965 8.86 -2.965 7.25 C -2.965 5.629 -1.839 4.493 -0.25 4.493 C 1.339 4.493 2.455 5.629 2.455 7.25 C 2.455 8.86 1.339 10.007 -0.25 10.007 Z M -0.25 5.619 C -1.039 5.619 -1.586 6.282 -1.586 7.25 C -1.586 8.218 -1.039 8.881 -0.25 8.881 C 0.529 8.881 1.076 8.218 1.076 7.25 C 1.076 6.282 0.529 5.619 -0.25 5.619 Z M -6.165 7.281 L -7.375 7.281 L -7.375 9.881 L -8.722 9.881 L -8.722 2.64 L -6.165 2.64 C -4.691 2.64 -3.639 3.598 -3.639 4.966 C -3.639 6.334 -4.691 7.281 -6.165 7.281 Z M -6.354 3.735 L -7.375 3.735 L -7.375 6.187 L -6.354 6.187 C -5.575 6.187 -5.028 5.692 -5.028 4.966 C -5.028 4.23 -5.575 3.735 -6.354 3.735 Z M 93.823 7.799 L 88.264 7.799 C 88.391 9.13 89.366 9.522 90.473 9.522 C 91.6 9.522 92.488 9.284 93.262 8.894 L 93.262 11.181 C 92.491 11.609 91.472 11.917 90.115 11.917 C 87.349 11.917 85.411 10.185 85.411 6.761 C 85.411 3.869 87.055 1.573 89.756 1.573 C 92.453 1.573 93.861 3.868 93.861 6.776 C 93.861 7.051 93.836 7.646 93.823 7.799 Z M 89.738 3.888 C 89.028 3.888 88.239 4.424 88.239 5.703 L 91.175 5.703 C 91.175 4.425 90.435 3.888 89.738 3.888 Z M 80.815 11.917 C 79.821 11.917 79.214 11.498 78.806 11.199 L 78.8 14.412 L 75.961 15.016 L 75.96 1.762 L 78.46 1.762 L 78.608 2.463 C 79 2.097 79.719 1.573 80.832 1.573 C 82.826 1.573 84.704 3.369 84.704 6.675 C 84.704 10.283 82.846 11.917 80.815 11.917 Z M 80.153 4.088 C 79.502 4.088 79.093 4.326 78.797 4.651 L 78.814 8.87 C 79.09 9.169 79.487 9.409 80.153 9.409 C 81.203 9.409 81.907 8.266 81.907 6.737 C 81.907 5.252 81.192 4.088 80.153 4.088 Z M 71.856 1.762 L 74.706 1.762 L 74.706 11.714 L 71.856 11.714 L 71.856 1.762 Z M 71.856 -1.416 L 74.706 -2.022 L 74.706 0.291 L 71.856 0.897 L 71.856 -1.416 Z M 68.817 4.967 L 68.817 11.714 L 65.979 11.714 L 65.979 1.762 L 68.434 1.762 L 68.612 2.601 C 69.277 1.379 70.604 1.627 70.982 1.763 L 70.982 4.373 C 70.621 4.256 69.488 4.086 68.817 4.967 Z M 62.731 8.223 C 62.731 9.896 64.523 9.375 64.886 9.23 L 64.886 11.541 C 64.508 11.749 63.822 11.917 62.894 11.917 C 61.209 11.917 59.944 10.676 59.944 8.995 L 59.957 -0.114 L 62.729 -0.704 L 62.731 1.762 L 64.887 1.762 L 64.887 4.183 L 62.731 4.183 L 62.731 8.223 Z M 59.192 8.707 C 59.192 10.751 57.565 11.917 55.204 11.917 C 54.225 11.917 53.155 11.727 52.099 11.273 L 52.099 8.562 C 53.052 9.08 54.266 9.469 55.207 9.469 C 55.84 9.469 56.296 9.299 56.296 8.774 C 56.296 7.419 51.98 7.929 51.98 4.786 C 51.98 2.776 53.515 1.573 55.818 1.573 C 56.759 1.573 57.699 1.717 58.64 2.092 L 58.64 4.767 C 57.776 4.3 56.679 4.036 55.816 4.036 C 55.221 4.036 54.851 4.208 54.851 4.651 C 54.851 5.929 59.192 5.321 59.192 8.707 Z" fill="#FFF" fill-rule="evenodd"></path></svg> 